<?xml version="1.0" encoding="UTF-8"?>
<svg width="858" height="362" viewBox="0 0 858 362" fill="none" xmlns="http://www.w3.org/2000/svg">
<path d="M230.5 227.5C259.5 227.5 274 239 274 262C274 285.667 259.5 297.5 230.5 297.5H219.5V314.5C219.5 329.5 215.333 340.833 207 348.5C198.667 356.167 187.833 360 174.5 360C161.167 360 150.333 356.167 142 348.5C134 340.833 130 329.5 130 314.5V297.5H18.5C6.5 297.5 -3 293.833 -10 286.5C-17 279.167 -20.5 270 -20.5 259C-20.5 247.333 -16.8333 236.333 -9.5 226L133.5 22C138.167 15.3333 144 10.3333 151 6.99998C158.333 3.33332 165.833 1.49999 173.5 1.49999C186.167 1.49999 197 5.49999 206 13.5C215 21.5 219.5 32.6667 219.5 47V227.5H230.5ZM70 227.5H130V141L70 227.5ZM422.805 361.5C379.138 361.5 345.805 346 322.805 315C299.805 284 288.305 239.167 288.305 180.5C288.305 122.167 299.805 77.5 322.805 46.5C345.805 15.5 379.138 -2.31266e-05 422.805 -2.31266e-05C466.138 -2.31266e-05 499.305 15.5 522.305 46.5C545.638 77.5 557.305 122.167 557.305 180.5C557.305 239.167 545.805 284 522.805 315C499.805 346 466.471 361.5 422.805 361.5ZM422.805 292C438.805 292 450.305 283.333 457.305 266C464.305 248.667 467.805 220.167 467.805 180.5C467.805 141.167 464.305 112.833 457.305 95.5C450.305 78.1667 438.805 69.5 422.805 69.5C406.805 69.5 395.305 78.1667 388.305 95.5C381.305 112.5 377.805 140.833 377.805 180.5C377.805 220.167 381.305 248.667 388.305 266C395.305 283.333 406.805 292 422.805 292ZM828.609 284C843.609 284 854.609 287 861.609 293C868.609 299 872.109 308 872.109 320C872.109 344.667 857.609 357 828.609 357H655.109C626.109 357 611.609 344.667 611.609 320C611.609 308 615.109 299 622.109 293C629.109 287 640.109 284 655.109 284H695.609V103.5L655.609 127C649.943 130.333 644.109 132 638.109 132C628.776 132 620.776 128 614.109 120C607.443 111.667 604.109 102.5 604.109 92.5C604.109 78.8333 609.943 68.5 621.609 61.5L701.609 15C716.276 6.66665 730.109 2.49997 743.109 2.49997C756.443 2.49997 767.109 6.49997 775.109 14.5C783.443 22.5 787.609 33.3333 787.609 47V284H828.609Z" fill="white" fill-opacity="0.62"/>
</svg>
