<?xml version="1.0" encoding="UTF-8"?>
<svg width="850" height="362" viewBox="0 0 850 362" fill="none" xmlns="http://www.w3.org/2000/svg">
<path d="M230.5 227.5C259.5 227.5 274 239 274 262C274 285.667 259.5 297.5 230.5 297.5H219.5V314.5C219.5 329.5 215.333 340.833 207 348.5C198.667 356.167 187.833 360 174.5 360C161.167 360 150.333 356.167 142 348.5C134 340.833 130 329.5 130 314.5V297.5H18.5C6.5 297.5 -3 293.833 -10 286.5C-17 279.167 -20.5 270 -20.5 259C-20.5 247.333 -16.8333 236.333 -9.5 226L133.5 22C138.167 15.3333 144 10.3333 151 6.99998C158.333 3.33332 165.833 1.49999 173.5 1.49999C186.167 1.49999 197 5.49999 206 13.5C215 21.5 219.5 32.6667 219.5 47V227.5H230.5ZM70 227.5H130V141L70 227.5ZM422.805 361.5C379.138 361.5 345.805 346 322.805 315C299.805 284 288.305 239.167 288.305 180.5C288.305 122.167 299.805 77.5 322.805 46.5C345.805 15.5 379.138 -2.31266e-05 422.805 -2.31266e-05C466.138 -2.31266e-05 499.305 15.5 522.305 46.5C545.638 77.5 557.305 122.167 557.305 180.5C557.305 239.167 545.805 284 522.805 315C499.805 346 466.471 361.5 422.805 361.5ZM422.805 292C438.805 292 450.305 283.333 457.305 266C464.305 248.667 467.805 220.167 467.805 180.5C467.805 141.167 464.305 112.833 457.305 95.5C450.305 78.1667 438.805 69.5 422.805 69.5C406.805 69.5 395.305 78.1667 388.305 95.5C381.305 112.5 377.805 140.833 377.805 180.5C377.805 220.167 381.305 248.667 388.305 266C395.305 283.333 406.805 292 422.805 292ZM786.109 175.5C805.776 181.167 821.109 191.5 832.109 206.5C843.443 221.5 849.109 239.667 849.109 261C849.109 281.333 843.609 299 832.609 314C821.609 329 805.943 340.667 785.609 349C765.609 357 742.109 361 715.109 361C693.443 361 672.609 358.167 652.609 352.5C632.609 346.5 615.276 338 600.609 327C594.943 322.667 590.943 318.167 588.609 313.5C586.276 308.5 585.109 302.667 585.109 296C585.109 285.667 587.943 277 593.609 270C599.276 262.667 606.276 259 614.609 259C619.276 259 623.443 259.833 627.109 261.5C630.776 262.833 635.776 265.167 642.109 268.5C643.443 269.167 644.943 270 646.609 271C648.609 271.667 650.776 272.5 653.109 273.5C663.776 278.833 673.276 283 681.609 286C690.276 288.667 699.943 290 710.609 290C729.276 290 742.609 287 750.609 281C758.943 275 763.109 265 763.109 251C763.109 238 758.943 228.667 750.609 223C742.276 217.333 728.609 214.5 709.609 214.5H678.609C668.609 214.5 660.776 211 655.109 204C649.443 197 646.609 188.667 646.609 179C646.609 169.333 649.443 161 655.109 154C660.776 147 668.609 143.5 678.609 143.5H700.609C718.943 143.5 732.276 140.833 740.609 135.5C748.943 130.167 753.109 121.667 753.109 110C753.109 97.6667 749.443 88.1667 742.109 81.5C734.776 74.5 724.609 71 711.609 71C702.276 71 693.443 72.5 685.109 75.5C677.109 78.5 668.109 82.5 658.109 87.5L647.609 92.5C641.276 95.8333 636.276 98.3333 632.609 100C628.943 101.333 624.776 102 620.109 102C611.776 102 604.776 98.5 599.109 91.5C593.443 84.1667 590.609 75.3333 590.609 65C590.609 58 591.776 52.1667 594.109 47.5C596.443 42.8333 600.443 38.3333 606.109 34C620.443 23.3333 637.276 15 656.609 8.99998C676.276 2.99998 696.109 -2.31266e-05 716.109 -2.31266e-05C740.776 -2.31266e-05 762.443 3.99998 781.109 12C800.109 20 814.609 31.3333 824.609 46C834.943 60.6667 840.109 77.6667 840.109 97C840.109 115.333 835.276 131.5 825.609 145.5C816.276 159.167 803.109 169.167 786.109 175.5Z" fill="white" fill-opacity="0.62"/>
</svg>
