<?xml version="1.0" encoding="UTF-8"?>
<svg width="858" height="362" viewBox="0 0 858 362" fill="none" xmlns="http://www.w3.org/2000/svg">
<path d="M230.5 227.5C259.5 227.5 274 239 274 262C274 285.667 259.5 297.5 230.5 297.5H219.5V314.5C219.5 329.5 215.333 340.833 207 348.5C198.667 356.167 187.833 360 174.5 360C161.167 360 150.333 356.167 142 348.5C134 340.833 130 329.5 130 314.5V297.5H18.5C6.5 297.5 -3 293.833 -10 286.5C-17 279.167 -20.5 270 -20.5 259C-20.5 247.333 -16.8333 236.333 -9.5 226L133.5 22C138.167 15.3333 144 10.3333 151 6.99998C158.333 3.33332 165.833 1.49999 173.5 1.49999C186.167 1.49999 197 5.49999 206 13.5C215 21.5 219.5 32.6667 219.5 47V227.5H230.5ZM70 227.5H130V141L70 227.5ZM422.805 361.5C379.138 361.5 345.805 346 322.805 315C299.805 284 288.305 239.167 288.305 180.5C288.305 122.167 299.805 77.5 322.805 46.5C345.805 15.5 379.138 -2.31266e-05 422.805 -2.31266e-05C466.138 -2.31266e-05 499.305 15.5 522.305 46.5C545.638 77.5 557.305 122.167 557.305 180.5C557.305 239.167 545.805 284 522.805 315C499.805 346 466.471 361.5 422.805 361.5ZM422.805 292C438.805 292 450.305 283.333 457.305 266C464.305 248.667 467.805 220.167 467.805 180.5C467.805 141.167 464.305 112.833 457.305 95.5C450.305 78.1667 438.805 69.5 422.805 69.5C406.805 69.5 395.305 78.1667 388.305 95.5C381.305 112.5 377.805 140.833 377.805 180.5C377.805 220.167 381.305 248.667 388.305 266C395.305 283.333 406.805 292 422.805 292ZM830.109 227.5C859.109 227.5 873.609 239 873.609 262C873.609 285.667 859.109 297.5 830.109 297.5H819.109V314.5C819.109 329.5 814.943 340.833 806.609 348.5C798.276 356.167 787.443 360 774.109 360C760.776 360 749.943 356.167 741.609 348.5C733.609 340.833 729.609 329.5 729.609 314.5V297.5H618.109C606.109 297.5 596.609 293.833 589.609 286.5C582.609 279.167 579.109 270 579.109 259C579.109 247.333 582.776 236.333 590.109 226L733.109 22C737.776 15.3333 743.609 10.3333 750.609 6.99998C757.943 3.33332 765.443 1.49999 773.109 1.49999C785.776 1.49999 796.609 5.49999 805.609 13.5C814.609 21.5 819.109 32.6667 819.109 47V227.5H830.109ZM669.609 227.5H729.609V141L669.609 227.5Z" fill="white" fill-opacity="0.62"/>
</svg>
