<?xml version="1.0" encoding="UTF-8"?>
<svg width="858" height="362" viewBox="0 0 858 362" fill="none" xmlns="http://www.w3.org/2000/svg">
<path d="M230.5 227.5C259.5 227.5 274 239 274 262C274 285.667 259.5 297.5 230.5 297.5H219.5V314.5C219.5 329.5 215.333 340.833 207 348.5C198.667 356.167 187.833 360 174.5 360C161.167 360 150.333 356.167 142 348.5C134 340.833 130 329.5 130 314.5V297.5H18.5C6.5 297.5 -3 293.833 -10 286.5C-17 279.167 -20.5 270 -20.5 259C-20.5 247.333 -16.8333 236.333 -9.5 226L133.5 22C138.167 15.3333 144 10.3333 151 6.99998C158.333 3.33332 165.833 1.49999 173.5 1.49999C186.167 1.49999 197 5.49999 206 13.5C215 21.5 219.5 32.6667 219.5 47V227.5H230.5ZM70 227.5H130V141L70 227.5ZM528.805 284C543.805 284 554.805 287 561.805 293C568.805 299 572.305 308 572.305 320C572.305 344.667 557.805 357 528.805 357H355.305C326.305 357 311.805 344.667 311.805 320C311.805 308 315.305 299 322.305 293C329.305 287 340.305 284 355.305 284H395.805V103.5L355.805 127C350.138 130.333 344.305 132 338.305 132C328.971 132 320.971 128 314.305 120C307.638 111.667 304.305 102.5 304.305 92.5C304.305 78.8333 310.138 68.5 321.805 61.5L401.805 15C416.471 6.66665 430.305 2.49997 443.305 2.49997C456.638 2.49997 467.305 6.49997 475.305 14.5C483.638 22.5 487.805 33.3333 487.805 47V284H528.805ZM710.109 -2.31266e-05C757.109 -2.31266e-05 793.443 15.3333 819.109 46C844.776 76.6666 857.609 120.333 857.609 177C857.609 214.333 851.443 247 839.109 275C827.109 302.667 809.943 324 787.609 339C765.609 354 739.776 361.5 710.109 361.5C691.443 361.5 672.276 358.5 652.609 352.5C633.276 346.5 616.609 338.167 602.609 327.5C596.943 323.167 592.776 318.667 590.109 314C587.776 309.333 586.609 303.5 586.609 296.5C586.609 286.167 589.443 277.5 595.109 270.5C601.109 263.167 608.276 259.5 616.609 259.5C621.276 259.5 625.443 260.333 629.109 262C632.776 263.333 637.776 265.667 644.109 269L655.109 274.5C666.109 279.833 675.276 283.833 682.609 286.5C689.943 289.167 697.609 290.5 705.609 290.5C722.609 290.5 736.276 282.833 746.609 267.5C757.276 251.833 763.609 230 765.609 202C757.943 212.667 747.609 221.167 734.609 227.5C721.943 233.5 707.943 236.5 692.609 236.5C672.609 236.5 654.609 231.667 638.609 222C622.609 212 609.943 198.333 600.609 181C591.609 163.333 587.109 143.5 587.109 121.5C587.109 98.1667 592.276 77.3333 602.609 59C613.276 40.3333 627.943 25.8333 646.609 15.5C665.276 5.16665 686.443 -2.31266e-05 710.109 -2.31266e-05ZM715.609 165.5C728.609 165.5 738.943 161.167 746.609 152.5C754.609 143.833 758.609 132.333 758.609 118C758.609 104 754.609 92.6667 746.609 84C738.609 75 728.276 70.5 715.609 70.5C702.609 70.5 692.276 74.8333 684.609 83.5C676.943 92.1666 673.109 103.667 673.109 118C673.109 132.667 676.776 144.333 684.109 153C691.776 161.333 702.276 165.5 715.609 165.5Z" fill="white" fill-opacity="0.62"/>
</svg>
