<?xml version="1.0" encoding="UTF-8"?>
<svg width="858" height="362" viewBox="0 0 858 362" fill="none" xmlns="http://www.w3.org/2000/svg">
<path d="M230.5 227.5C259.5 227.5 274 239 274 262C274 285.667 259.5 297.5 230.5 297.5H219.5V314.5C219.5 329.5 215.333 340.833 207 348.5C198.667 356.167 187.833 360 174.5 360C161.167 360 150.333 356.167 142 348.5C134 340.833 130 329.5 130 314.5V297.5H18.5C6.5 297.5 -3 293.833 -10 286.5C-17 279.167 -20.5 270 -20.5 259C-20.5 247.333 -16.8333 236.333 -9.5 226L133.5 22C138.167 15.3333 144 10.3333 151 6.99998C158.333 3.33332 165.833 1.49999 173.5 1.49999C186.167 1.49999 197 5.49999 206 13.5C215 21.5 219.5 32.6667 219.5 47V227.5H230.5ZM70 227.5H130V141L70 227.5ZM515.805 284C530.471 284 541.305 287 548.305 293C555.638 298.667 559.305 307.667 559.305 320C559.305 332.667 555.638 342 548.305 348C541.305 354 530.471 357 515.805 357H333.305C321.305 357 311.805 353.5 304.805 346.5C297.805 339.167 294.305 330 294.305 319C294.305 304.667 299.971 291.667 311.305 280L417.305 169.5C439.305 146.5 450.305 125.333 450.305 106C450.305 94.6667 446.971 86 440.305 80C433.971 74 424.805 71 412.805 71C403.138 71 394.138 72.5 385.805 75.5C377.805 78.1667 368.471 82.1667 357.805 87.5L347.805 92.5C346.471 93.1667 343.805 94.6667 339.805 97C336.138 99 332.805 100.5 329.805 101.5C326.805 102.5 323.638 103 320.305 103C311.971 103 304.971 99.3333 299.305 92C293.638 84.3333 290.805 75.3333 290.805 65C290.805 57.6667 291.805 51.6667 293.805 47C296.138 42.3333 300.305 38 306.305 34C321.971 23.3333 339.471 15 358.805 8.99998C378.471 2.99998 397.805 -2.31266e-05 416.805 -2.31266e-05C441.471 -2.31266e-05 463.138 4.16665 481.805 12.5C500.471 20.5 514.805 32.1667 524.805 47.5C535.138 62.5 540.305 79.8333 540.305 99.5C540.305 119.833 536.138 138.5 527.805 155.5C519.805 172.167 505.971 190.833 486.305 211.5L415.305 284H515.805ZM710.598 -2.31266e-05C757.598 -2.31266e-05 793.931 15.3333 819.598 46C845.264 76.6666 858.098 120.333 858.098 177C858.098 214.333 851.931 247 839.598 275C827.598 302.667 810.431 324 788.098 339C766.098 354 740.264 361.5 710.598 361.5C691.931 361.5 672.764 358.5 653.098 352.5C633.764 346.5 617.098 338.167 603.098 327.5C597.431 323.167 593.264 318.667 590.598 314C588.264 309.333 587.098 303.5 587.098 296.5C587.098 286.167 589.931 277.5 595.598 270.5C601.598 263.167 608.764 259.5 617.098 259.5C621.764 259.5 625.931 260.333 629.598 262C633.264 263.333 638.264 265.667 644.598 269L655.598 274.5C666.598 279.833 675.764 283.833 683.098 286.5C690.431 289.167 698.098 290.5 706.098 290.5C723.098 290.5 736.764 282.833 747.098 267.5C757.764 251.833 764.098 230 766.098 202C758.431 212.667 748.098 221.167 735.098 227.5C722.431 233.5 708.431 236.5 693.098 236.5C673.098 236.5 655.098 231.667 639.098 222C623.098 212 610.431 198.333 601.098 181C592.098 163.333 587.598 143.5 587.598 121.5C587.598 98.1667 592.764 77.3333 603.098 59C613.764 40.3333 628.431 25.8333 647.098 15.5C665.764 5.16665 686.931 -2.31266e-05 710.598 -2.31266e-05ZM716.098 165.5C729.098 165.5 739.431 161.167 747.098 152.5C755.098 143.833 759.098 132.333 759.098 118C759.098 104 755.098 92.6667 747.098 84C739.098 75 728.764 70.5 716.098 70.5C703.098 70.5 692.764 74.8333 685.098 83.5C677.431 92.1666 673.598 103.667 673.598 118C673.598 132.667 677.264 144.333 684.598 153C692.264 161.333 702.764 165.5 716.098 165.5Z" fill="white" fill-opacity="0.62"/>
</svg>
