<?xml version="1.0" encoding="UTF-8"?>
<svg width="858" height="362" viewBox="0 0 858 362" fill="none" xmlns="http://www.w3.org/2000/svg">
<path d="M147.5 126.5C169.167 126.5 188.333 131.333 205 141C222 150.333 235.167 163.667 244.5 181C254.167 198 259 217.667 259 240C259 264 253.333 285.167 242 303.5C230.667 321.833 214.667 336 194 346C173.333 356 149.5 361 122.5 361C101.833 361 81.5 358 61.5 352C41.8333 346 24.8333 337.667 10.5 327C5.16667 322.667 1.16667 318.167 -1.5 313.5C-3.83333 308.5 -5 302.667 -5 296C-5 285.667 -2.16666 277 3.5 270C9.16667 262.667 16.1667 259 24.5 259C29.5 259 33.6667 259.667 37 261C40.3333 262.333 45.3333 264.833 52 268.5L62 273.5C72.3333 278.5 81.6667 282.5 90 285.5C98.6667 288.5 108 290 118 290C136.667 290 150.5 286.333 159.5 279C168.5 271.333 173 259.5 173 243.5C173 228.5 168.333 216.833 159 208.5C149.667 200.167 136.667 196 120 196C110 196 100.833 196.833 92.5 198.5C84.5 200.167 75 203.167 64 207.5C57 211.167 49.5 213 41.5 213C32.1667 213 24.3333 210.333 18 205C11.6667 199.333 8.5 192 8.5 183V47.5C8.5 33.5 12.1667 22.8333 19.5 15.5C26.8333 8.16665 37.3333 4.49998 51 4.49998H206C235 4.49998 249.5 16 249.5 39C249.5 62.3333 235 74 206 74H98V135.5C112 129.5 128.5 126.5 147.5 126.5ZM422.805 361.5C379.138 361.5 345.805 346 322.805 315C299.805 284 288.305 239.167 288.305 180.5C288.305 122.167 299.805 77.5 322.805 46.5C345.805 15.5 379.138 -2.31266e-05 422.805 -2.31266e-05C466.138 -2.31266e-05 499.305 15.5 522.305 46.5C545.638 77.5 557.305 122.167 557.305 180.5C557.305 239.167 545.805 284 522.805 315C499.805 346 466.471 361.5 422.805 361.5ZM422.805 292C438.805 292 450.305 283.333 457.305 266C464.305 248.667 467.805 220.167 467.805 180.5C467.805 141.167 464.305 112.833 457.305 95.5C450.305 78.1667 438.805 69.5 422.805 69.5C406.805 69.5 395.305 78.1667 388.305 95.5C381.305 112.5 377.805 140.833 377.805 180.5C377.805 220.167 381.305 248.667 388.305 266C395.305 283.333 406.805 292 422.805 292ZM722.609 361.5C678.943 361.5 645.609 346 622.609 315C599.609 284 588.109 239.167 588.109 180.5C588.109 122.167 599.609 77.5 622.609 46.5C645.609 15.5 678.943 -2.31266e-05 722.609 -2.31266e-05C765.943 -2.31266e-05 799.109 15.5 822.109 46.5C845.443 77.5 857.109 122.167 857.109 180.5C857.109 239.167 845.609 284 822.609 315C799.609 346 766.276 361.5 722.609 361.5ZM722.609 292C738.609 292 750.109 283.333 757.109 266C764.109 248.667 767.609 220.167 767.609 180.5C767.609 141.167 764.109 112.833 757.109 95.5C750.109 78.1667 738.609 69.5 722.609 69.5C706.609 69.5 695.109 78.1667 688.109 95.5C681.109 112.5 677.609 140.833 677.609 180.5C677.609 220.167 681.109 248.667 688.109 266C695.109 283.333 706.609 292 722.609 292Z" fill="white" fill-opacity="0.62"/>
</svg>
